<?xml version="1.0" encoding="utf-8"?>
<!-- Generator: Adobe Illustrator 15.0.0, SVG Export Plug-In . SVG Version: 6.00 Build 0)  -->
<!DOCTYPE svg PUBLIC "-//W3C//DTD SVG 1.1//EN" "http://www.w3.org/Graphics/SVG/1.1/DTD/svg11.dtd">
<svg version="1.1" id="Layer_1" xmlns="http://www.w3.org/2000/svg" xmlns:xlink="http://www.w3.org/1999/xlink" x="0px" y="0px"
	 width="480px" height="150px" viewBox="0 0 480 150" enable-background="new 0 0 480 150" xml:space="preserve">
<g>
	<g>
		<path opacity="0.25" fill="#FFFFFF" d="M6.006-0.35C79.75,55.649,150.869,147.904,240,147.904
			c89.133,0,160.251-92.255,233.994-148.254H6.006z"/>
		<path fill="#FFFFFF" d="M31.699-0.35C97.283,54.066,160.689,142.143,240,142.143S382.716,54.066,448.3-0.35H31.699z"/>
	</g>
	<g>
		<path fill="#808184" d="M203.435,43.547c-0.353,0.301-0.694,0.627-1.016,0.993c-1.465,1.659-3.652,5.29-3.512,12.03
			c0.004,0.166,0.122,0.462,0.501,0.418c0.324-0.045,6.274-1.002,6.498-1.039c0.227-0.035,0.341-0.197,0.294-0.468
			c-0.038-0.228-1.768-9.195-2.241-11.64C203.885,43.453,203.568,43.439,203.435,43.547z"/>
		<path fill="#808184" d="M207.985,41.764c-0.124,0-0.244,0.006-0.368,0.01c-0.239,0.022-0.671,0.335-0.593,0.743
			c0.497,2.591,2.308,12.069,2.381,12.349c0.087,0.322,0.33,0.479,0.606,0.431c0.234-0.038,5.096-0.81,6.6-1.052
			c0.278-0.043,0.427-0.354,0.42-0.495c-0.285-4.913-1.771-7.724-3.178-9.311C212.321,42.714,210.234,41.764,207.985,41.764z"/>
		<path fill="#808184" d="M205.292,71.842c-0.036-0.189-1.733-10.035-2.047-11.867c-0.036-0.186-0.214-0.245-0.394-0.237
			c-0.154,0.016-2.565,0.405-3.379,0.542c-0.127,0.019-0.259,0.109-0.227,0.281c0.758,4.646,4.243,10.575,4.275,10.635
			c0,0,0.276,0.451,0.371,0.59c0.093,0.136,0.305,0.302,0.47,0.302c0.102,0,0.49-0.005,0.743-0.005
			C205.237,72.082,205.333,72.049,205.292,71.842z"/>
		<path fill="#808184" d="M211.853,71.718c0.125-0.17,0.403-0.622,0.403-0.622c0.06-0.092,3.926-5.848,4.534-10.976
			c0.097-0.815,0.167-1.593,0.213-2.338c0.005-0.099-0.112-0.274-0.348-0.235c-1.818,0.283-9.86,1.562-9.984,1.589
			c-0.143,0.023-0.241,0.128-0.212,0.294c0.299,1.752,2.072,12.07,2.121,12.262c0.053,0.22,0.239,0.385,0.496,0.385
			c0.687,0,1.96,0,2.096-0.014C211.523,72.047,211.728,71.887,211.853,71.718z"/>
		<path fill="#0287BF" d="M194.204,27.586c-0.144-0.411-4.236-11.479-4.337-11.749c-0.103-0.27-0.468-0.219-0.624-0.117
			c-5.593,3.912-9.974,9.823-11.644,17.795c-0.077,0.391,0.303,0.658,0.426,0.622c0.125-0.04,15.406-5.469,15.881-5.645
			C194.384,28.318,194.347,28.001,194.204,27.586z"/>
		<path fill="#0287BF" d="M198.217,26.965c4.442-1.574,29.36-10.401,29.63-10.53c0.297-0.137,0.218-0.557-0.006-0.717
			c-5.754-4.056-12.981-5.768-19.875-5.768c-4.991,0-10.145,1.136-14.785,3.44c-0.21,0.104-0.523,0.591-0.351,1.052
			c0.979,2.665,4.32,11.731,4.46,12.081C197.456,26.941,197.778,27.119,198.217,26.965z"/>
		<path fill="#0287BF" d="M186.456,44.46c0.726-4.861,2.54-8.442,4.427-10.974c0.166-0.212,0.23-0.537-0.221-0.374
			c-2.804,0.996-12.946,4.607-13.175,4.679c-0.267,0.081-0.551,0.419-0.551,0.779c-0.152,2.608-0.038,5.395,0.376,8.364
			c0.026,0.168,0.269,0.449,0.592,0.362c1.798-0.482,7.677-2.066,7.977-2.139C186.238,45.068,186.427,44.648,186.456,44.46z"/>
		<path fill="#0287BF" d="M186.714,55.723c-0.391-1.209-0.605-4.809-0.594-6.865c0.003-0.13-0.159-0.347-0.434-0.271
			c-1.594,0.43-6.971,1.87-7.194,1.93c-0.263,0.076-0.408,0.41-0.368,0.549c0.262,0.944,0.613,2.201,0.972,2.648
			c0.069,0.133,0.461,0.513,0.765,0.695c0.408,0.25,5.208,1.908,6.481,1.742C186.637,56.111,186.753,55.841,186.714,55.723z"/>
		<path fill="#0287BF" d="M213.621,25.538c4.378,1.014,8.15,3.231,10.942,6.487c0.551,0.648,1.055,1.335,1.519,2.056
			c0.116,0.18,0.49,0.309,0.72,0.234c0.198-0.064,8.473-2.334,10.756-2.96c0.369-0.099,0.482-0.534,0.438-0.723
			c-1.244-4.766-3.452-8.591-6.292-11.584c-0.122-0.132-0.561-0.321-0.899-0.201c-2.896,1.027-16.89,5.979-17.225,6.123
			C213.202,25.127,213.278,25.459,213.621,25.538z"/>
		<path fill="#0287BF" d="M227.932,37.677c1.499,3.726,2.501,11.12,1.068,17.067c-0.011,0.171,0.209,0.471,0.509,0.443
			c0.25-0.023,4.203-0.674,5.927-0.895c0.392-0.027,0.532-0.211,0.626-0.439c2.502-6.02,3.268-14.791,2.744-18.967
			c-0.048-0.284-0.367-0.381-0.578-0.33c-0.193,0.042-8.441,2.319-10.109,2.78C227.932,37.385,227.897,37.59,227.932,37.677z"/>
		<path fill="#0287BF" d="M213.244,28.811c-0.267-0.069-0.835,0.053-0.902,0.449c-0.366,2.09-1.52,8.653-1.546,8.93
			c-0.034,0.324,0.268,0.744,0.452,0.8c1.915,0.595,3.647,1.708,5.045,3.283c1.319,1.485,2.701,3.788,3.458,7.3
			c0.048,0.229,0.356,0.703,0.86,0.792c0.41,0.075,3.946,0.541,5.33,0.721c0.342,0.041,0.574-0.268,0.582-0.436
			c0.421-7.006-1.062-12.551-4.441-16.504C219.453,31.075,216.177,29.545,213.244,28.811z"/>
		<path fill="#0287BF" d="M207.549,37.83c0.375-2.148,1.496-8.57,1.541-8.905c0.052-0.405-0.15-0.741-0.564-0.747
			c-0.191-0.006-0.374-0.008-0.548-0.008c-5.317,0-10.337,2.33-13.779,6.395c-1.78,2.096-3.627,5.263-4.415,9.791
			c-0.042,0.24,0.127,0.771,0.527,0.834c1.723,0.261,6.305,0.956,6.477,0.983c0.217,0.036,0.88-0.231,0.958-0.405
			c0.615-1.257,1.354-2.396,2.226-3.389c1.883-2.134,4.234-3.449,6.72-3.787C206.934,38.556,207.473,38.259,207.549,37.83z"/>
		<path fill="#0287BF" d="M216.378,71.875c0.093-0.084,1.07-1.047,1.07-1.047c0.529-0.602,7.399-8.615,8.595-15.766
			c0.077-0.438-0.243-0.709-0.556-0.75c-1.313-0.177-4.184-0.563-4.503-0.605c-0.416-0.055-0.676,0.396-0.665,0.646
			c0.061,1.822-0.021,3.861-0.289,6.149c-0.533,4.509-3.07,9.159-4.335,11.257c-0.065,0.102,0.042,0.291,0.141,0.291
			c0.056,0,0.086-0.002,0.126,0C216.145,72.061,216.289,71.961,216.378,71.875z"/>
		<path fill="#0287BF" d="M200.107,71.775c-1.181-2.179-3.647-7.115-4.169-11.259c-0.499-3.966-0.351-7.601,0.403-10.748
			c0.027-0.116-0.082-0.375-0.358-0.417c-1.449-0.223-5.962-0.915-6.204-0.941c-0.288-0.037-0.385,0.154-0.388,0.262
			c-0.026,1.928,0.125,4.049,0.512,6.375c1.088,6.529,7.7,15.227,8.245,15.93c0,0,0.72,0.826,0.863,0.944
			c0.141,0.126,0.242,0.182,0.353,0.182c0.227,0,0.583,0,0.664-0.006C200.148,72.093,200.165,71.887,200.107,71.775z"/>
		<g>
			<path fill="#808184" d="M236.651,61.117c0.572-0.252,1.299-0.387,2.161-0.387h2.274c0.211,0,0.381-0.059,0.503-0.17
				c0.095-0.086,0.291-0.324,0.087-0.738l-0.418-1.04c-0.116-0.354-0.405-0.562-0.773-0.562h-1.603
				c-4.566,0-7.398,2.723-7.398,7.103c0,4.37,2.912,7.194,7.422,7.194h1.579c0.203,0,0.372-0.055,0.493-0.172
				c0.099-0.084,0.174-0.203,0.26-0.404l0.431-1.031c0.149-0.299,0.065-0.516,0.004-0.617c-0.118-0.189-0.323-0.285-0.609-0.285
				h-2.251c-0.871,0-1.597-0.135-2.15-0.397c-2.014-0.961-2.455-3.417-2.455-4.287C234.207,64.246,234.72,61.982,236.651,61.117z"/>
			<path fill="#808184" d="M246.951,57.324c0.268,0,0.524-0.049,0.764-0.156c0.225-0.1,0.43-0.236,0.609-0.41
				c0.17-0.174,0.306-0.375,0.41-0.615c0.103-0.238,0.152-0.487,0.152-0.748c0-0.268-0.05-0.523-0.154-0.758
				c-0.101-0.229-0.234-0.436-0.412-0.615c-0.176-0.17-0.381-0.309-0.609-0.41c-0.464-0.201-1.03-0.207-1.514,0.002
				c-0.229,0.1-0.432,0.238-0.607,0.414c-0.172,0.171-0.309,0.375-0.414,0.609c-0.102,0.234-0.156,0.49-0.156,0.758
				c0,0.261,0.055,0.514,0.158,0.76c0.107,0.234,0.244,0.438,0.412,0.604c0.176,0.174,0.379,0.311,0.609,0.414
				C246.437,57.275,246.69,57.324,246.951,57.324z"/>
			<path fill="#808184" d="M254.453,70.008h-6.184V59.789c0-0.174-0.021-0.425-0.214-0.605c-0.132-0.113-0.312-0.162-0.598-0.162
				c-0.019,0-1.815,0.132-1.815,1.085v11.358c0,0.541,0.294,0.777,0.46,0.865c0.226,0.127,0.521,0.188,0.905,0.188h6.815
				c0.171,0,0.31-0.024,0.426-0.074c0.152-0.076,0.278-0.215,0.394-0.453l0.432-1.024c0.174-0.366,0.08-0.598-0.041-0.739
				C254.841,70.008,254.55,70.008,254.453,70.008z"/>
			<path fill="#808184" d="M271.371,60.327c-0.15-0.085-0.327-0.126-0.528-0.126h-8.688c-0.748,0-1.493,0.139-2.218,0.418
				c-0.725,0.284-1.383,0.695-1.949,1.237c-0.568,0.54-1.034,1.216-1.391,2.013c-0.346,0.797-0.523,1.709-0.523,2.721
				c0,0.902,0.168,1.758,0.501,2.543c0.339,0.783,0.794,1.461,1.35,2.022c0.557,0.562,1.206,1.017,1.932,1.34
				c0.732,0.323,1.495,0.485,2.267,0.485c0.672,0,1.372-0.135,2.094-0.402c0.721-0.267,1.387-0.677,1.977-1.205
				c0.597-0.533,1.094-1.21,1.475-2.002c0.383-0.807,0.578-1.75,0.578-2.816c0-0.385-0.039-0.781-0.114-1.178
				c-0.075-0.379-0.184-0.76-0.325-1.141c-0.15-0.398-0.314-0.734-0.5-1.024c-0.18-0.276-0.344-0.505-0.509-0.706
				c1.371-0.004,3.649-0.006,3.649-0.006c0.206,0,0.383-0.056,0.518-0.17c0.059-0.049,0.683-0.766,0.73-1.135
				c0.012-0.08,0.02-0.166,0.02-0.246C271.714,60.679,271.593,60.453,271.371,60.327z M265.921,66.564
				c0,0.557-0.103,1.077-0.304,1.561c-0.198,0.475-0.478,0.897-0.823,1.261c-0.346,0.353-0.75,0.638-1.207,0.841
				c-0.904,0.4-2.017,0.385-2.883,0.006c-0.451-0.197-0.851-0.47-1.189-0.815c-0.338-0.345-0.611-0.763-0.809-1.233
				c-0.193-0.486-0.287-1.002-0.287-1.582c0-0.553,0.096-1.079,0.287-1.564c0.201-0.491,0.473-0.928,0.811-1.303
				c0.335-0.365,0.734-0.66,1.191-0.881c0.441-0.212,0.928-0.32,1.442-0.32c0.507,0,0.988,0.104,1.433,0.306
				c0.457,0.214,0.861,0.499,1.207,0.86c0.35,0.365,0.629,0.801,0.825,1.287C265.819,65.477,265.921,66.008,265.921,66.564z"/>
		</g>
		<path fill="#231F20" d="M191.729,83.441c-1.815,0.832-3.364,2.443-4.653,4.828c-1.291,2.379-1.837,4.484-1.642,6.309
			c0.199,1.82,0.938,2.986,2.228,3.477c1.289,0.5,2.951-0.35,4.982-2.543c2.033-2.186,3.831-3.248,5.396-3.182
			c1.561,0.066,1.726,1.209,3.031,3.42c1.302,2.213,1.822,3.713,1.562,4.496c-0.259,0.781-1.198,0.131-2.813-1.939
			c-1.615-2.068-2.012-2.33-3.713-0.777c-1.709,1.549-3.312,2.875-4.811,3.986c-1.495,1.105-3.124,1.662-4.881,1.662
			c-1.76,0-3.194-0.916-4.302-2.736c-1.109-1.828-1.626-4.043-1.562-6.645c0.067-2.605,0.761-5.035,2.091-7.289
			c1.329-2.256,3.045-4.148,5.7-5.428c2.657-1.275,5.347-1.719,7.372-1.08c2.007,0.637,3.088,1.941,3.401,4.363
			c0.411,3.172-0.36,5.016-1.66,5.471c-0.951,0.33-2.158-0.061-2.13-1.719C195.415,83.057,193.536,82.605,191.729,83.441z"/>
		<path fill="#231F20" d="M292.238,82.299c-1.541,13.045-1.34,18.779,0.607,19.424c1.957,0.652,4.072-0.975,6.348-4.883
			c2.281-3.91,3.875-5.762,4.787-5.57c0.913,0.193,1.692,2.572,2.346,7.133c0.65,4.561,1.793,5.246,3.419,4.598
			c1.628-0.654,1.727-2.744,0.294-8.799c-1.434-6.059-3.322-9.088-5.668-9.088c-2.344,0-4.559,2.09-6.642,6.254
			c-1.978,3.959-2.372,1.107-1.181-8.549c0.004-0.033,0.032-0.42,0.032-0.594c0-1.195-0.965-2.16-2.157-2.16
			c-1.074,0-1.959,0.785-2.125,1.818C292.287,81.969,292.246,82.246,292.238,82.299z"/>
		<path fill="#231F20" d="M183.084,72.598c-1.85-0.02-4.808,0.15-8.631,0.119c-0.075,0-0.205-0.228-0.193-0.342
			c0.682-6.667,1.691-8.125,3.024-14.41c0.074-0.347-0.123-1-0.608-1.043c-2.857-0.229-4.632,1.725-5.326,4.467
			c-0.741,2.934-1.515,4.984-2.211,11.089c-0.017,0.122-0.139,0.396-0.301,0.412c-1.375,0.12-7.884,0.704-8.071,0.731
			c-0.208,0.039-0.709,0.258-0.775,0.49c-0.05,0.168-0.787,2.303-1.139,3.322c-0.109,0.32,0.141,0.455,0.317,0.465
			c0.155,0,7.446-1.029,9.171-1.273c0.23-0.029,0.347,0.146,0.337,0.252c-0.572,7.436,0.162,16.766,1.124,22.131
			c0.94,5.26,1.625,5.441,2.462,5.225c1.407-0.369,1.037-2.748,0.896-5.684c-0.139-2.906,0.005-13.711,0.433-22.242
			c0.005-0.08,0.194-0.258,0.291-0.273c1.7-0.232,4.843-0.811,9.427-1.738C186.414,73.672,185.561,72.621,183.084,72.598z"/>
		<path fill="#231F20" d="M320.583,76.539c-1.361-0.943-2.681-0.838-3.745,0.338c-0.76,0.848-0.339,2.531,0.405,3.102
			c1.323,1.021,2.697,0.877,3.753-0.338C321.735,78.787,321.288,77.023,320.583,76.539z"/>
		<path fill="#231F20" d="M210.458,81.604c0.214-1.049,1.132-1.838,2.242-1.838c1.27,0,2.299,1.029,2.299,2.297
			c0,0.217-0.077,0.793-0.082,0.822c-3.185,16.703-3.933,18.514-2.241,13.939c1.756-4.756,3.873-7.457,6.347-8.107
			c2.477-0.648,3.941,0.391,4.396,3.127c0.458,2.734,1.11,3.451,1.957,2.146c0.847-1.305,2.245-1.789,4.2-1.461
			c1.953,0.32,3.581,1.824,4.887,4.49c1.3,2.672,1.236,4.301-0.198,4.887c-1.433,0.584-2.604-0.066-3.516-1.955
			c-0.912-1.891-1.693-2.869-2.344-2.932c-0.655-0.064-1.564,0.848-2.735,2.738c-1.174,1.887-2.184,2.312-3.031,1.27
			c-0.846-1.043-1.629-2.676-2.344-4.891c-0.716-2.211-1.76-1.461-3.125,2.252c-1.371,3.711-3.747,5.373-7.136,4.982
			c-3.359-0.391-3.255-4.334,0.314-21.201C210.374,82.041,210.446,81.658,210.458,81.604z"/>
		<path fill="#231F20" d="M320.954,86.428c0-1.184-0.959-2.139-2.143-2.139c-1.182,0-2.137,0.955-2.137,2.139
			c0,0.086-0.008,0.482-0.012,0.555c-0.116,3.688,0.134,15.057,0.468,15.633c0.377,0.65,1.317,0.736,1.876,0.578
			c0.604-0.17,1.012-1.33,1.307-4.033c0.298-2.701,0.511-7.553,0.641-9.803C321,88.482,320.954,86.545,320.954,86.428z"/>
		<path fill="#231F20" d="M249.683,83.441c-1.812,0.832-3.36,2.443-4.65,4.828c-1.289,2.379-1.835,4.484-1.644,6.309
			c0.197,1.82,0.942,2.986,2.229,3.477c1.288,0.5,2.951-0.35,4.982-2.543c2.035-2.186,3.833-3.248,5.394-3.182
			c1.563,0.066,1.729,1.209,3.032,3.42c1.303,2.213,1.822,3.713,1.563,4.496c-0.261,0.781-1.2,0.131-2.815-1.939
			c-1.614-2.068-2.009-2.33-3.714-0.777c-1.706,1.549-3.311,2.875-4.808,3.986c-1.498,1.105-3.126,1.662-4.884,1.662
			c-1.76,0-3.192-0.916-4.298-2.736c-1.11-1.828-1.633-4.043-1.562-6.645c0.062-2.605,0.76-5.035,2.086-7.289
			c1.332-2.256,3.045-4.148,5.704-5.428c2.657-1.275,5.347-1.719,7.373-1.08c2.005,0.637,3.084,1.941,3.397,4.363
			c0.412,3.172-0.359,5.016-1.659,5.471c-0.948,0.33-2.158-0.061-2.129-1.719C253.371,83.057,251.496,82.605,249.683,83.441z"/>
		<path fill="#231F20" d="M276.28,83.441c-1.81,0.832-3.362,2.443-4.652,4.828c-1.29,2.379-1.835,4.484-1.64,6.309
			c0.195,1.82,0.938,2.986,2.228,3.477c1.288,0.5,2.952-0.35,4.981-2.543c2.035-2.186,3.83-3.248,5.395-3.182
			c1.562,0.066,1.73,1.209,3.031,3.42c1.302,2.213,1.824,3.713,1.564,4.496c-0.263,0.781-1.199,0.131-2.815-1.939
			c-1.612-2.068-2.011-2.33-3.714-0.777c-1.709,1.549-3.311,2.875-4.807,3.986c-1.497,1.105-3.127,1.662-4.883,1.662
			c-1.762,0-3.194-0.916-4.301-2.736c-1.111-1.828-1.632-4.043-1.564-6.645c0.066-2.605,0.762-5.035,2.093-7.289
			c1.324-2.256,3.042-4.148,5.698-5.428c2.658-1.275,5.346-1.719,7.369-1.08c2.011,0.637,3.09,1.941,3.4,4.363
			c0.412,3.172-0.359,5.016-1.656,5.471c-0.947,0.33-2.16-0.061-2.131-1.719C279.965,83.057,278.091,82.605,276.28,83.441z"/>
	</g>
</g>
</svg>
